<mxfile host="app.diagrams.net" modified="2023-10-24T02:51:19.916Z" agent="Mozilla/5.0 (Windows NT 10.0; Win64; x64) AppleWebKit/537.36 (KHTML, like Gecko) Chrome/115.0.0.0 Safari/537.36" version="22.0.6" etag="YqbFCXlJhJE-J41uR4YD" type="github">
  <diagram name="Trang-1" id="FTsFSD5V3v3NeHQqU3Af">
    <mxGraphModel>
      <root>
        <mxCell id="0" />
        <mxCell id="1" parent="0" />
      </root>
    </mxGraphModel>
  </diagram>
</mxfile>
